<svg xmlns="http://www.w3.org/2000/svg" viewBox="0 0 154 146"><style>.st0{fill:#fff}</style><path class="st0" d="M100.3 49c0-2.6-2.1-4.8-4.8-4.8H68.2l-.3.1-.6.3-13 10.9c-.3.3-.5.6-.6 1.1V97c0 2.6 2.1 4.8 4.8 4.8h37.2c2.6 0 4.8-2.1 4.8-4.8V49zm-3 48c0 .9-.8 1.8-1.8 1.8H58.4c-.9 0-1.8-.8-1.8-1.8V58.1l.1-.1 11.4-9.6V59h-5.3v3h8.3V47.2h24.4c.9 0 1.8.8 1.8 1.8v48z"/><path class="st0" d="M71.8 75.5l1.5-4.6c1.4-4.5 3.9-6.5 8.2-6.5 1.4 0 2.6.2 3.5.4l-.6 4c-.9-.3-1.7-.4-2.8-.4-2.2 0-3.3 1-4.2 3.7l-1.1 3.3h5.5l.6 3.8h-7.3L73 85.7h11.3l.7 3.9H68.2v-3.1l2.3-7.3h-2.3v-3.8h3.6z"/></svg>