<svg xmlns="http://www.w3.org/2000/svg" viewBox="0 0 154 146"><style>.st0{fill:#fff}</style><path class="st0" d="M65.5 74.9l-4.1-3.3 1.6-1.9 2 1.6 3.4-4.3 2 1.5zM65.5 84.1l-4.1-3.3 1.6-1.9 2 1.6 3.4-4.3 2 1.5zM65.5 93.2L61.4 90l1.6-2 2 1.7 3.4-4.3 2 1.5z"/><path class="st0" d="M95.6 44.2H68.2l-.3.1-.6.3-13 10.9c-.3.3-.5.7-.6 1.1V97c0 2.6 2.1 4.8 4.8 4.8h37.2c2.6 0 4.8-2.1 4.8-4.8V49c-.2-2.6-2.3-4.8-4.9-4.8zM97.3 97c0 .9-.8 1.8-1.8 1.8H58.4c-.9 0-1.8-.8-1.8-1.8V58.1l.1-.1 11.4-9.6V59h-5.3v3h8.3V47.2h24.4c.9 0 1.8.8 1.8 1.8v48z"/><path class="st0" d="M90.6 92.2H74.9c-1 0-1.8-.8-1.8-1.8s.8-1.8 1.8-1.8h15.7c1 0 1.8.8 1.8 1.8-.1 1-.8 1.8-1.8 1.8zM90.6 82.5H74.9c-1 0-1.8-.8-1.8-1.8s.8-1.8 1.8-1.8h15.7c1 0 1.8.8 1.8 1.8-.1 1-.8 1.8-1.8 1.8zM90.6 72.7H74.9c-1 0-1.8-.8-1.8-1.8s.8-1.8 1.8-1.8h15.7c1 0 1.8.8 1.8 1.8-.1 1.1-.8 1.8-1.8 1.8z"/></svg>