<svg xmlns="http://www.w3.org/2000/svg" viewBox="0 0 154 146"><style>.st0{fill:#fff}</style><path class="st0" d="M82.5 91.9v-4.6H79v4.6l-9.4 7.8c-.7.6-.8 1.7-.2 2.5.3.4.8.6 1.3.6.4 0 .8-.1 1.1-.4l7.2-5.9v4.7c0 1 .8 1.8 1.8 1.8s1.8-.8 1.8-1.8v-4.8l7.2 6c.3.3.7.4 1.1.4.5 0 1-.2 1.3-.6.6-.7.5-1.8-.2-2.5l-9.5-7.8z"/><path class="st0" d="M108.7 44.4H64.4c.8 1 1.3 2.2 1.7 3.5h37.6v29.3c0 1.9-1.6 3.5-3.5 3.5H67.3V68.9c0-1.5-.5-2.9-1.3-4-.5-.7-1.1-1.3-1.8-1.8-1.1-.8-2.5-1.3-4-1.3h-9.6c-1.5 0-2.9.5-4 1.3-.7.5-1.3 1.1-1.8 1.8-.8 1.1-1.3 2.5-1.3 4v12.7c0 1.5.5 2.9 1.2 4 .5.7 1.1 1.3 1.8 1.8.6.4 1.2.7 1.9.9v14.8H52V85.2h-1.4c-.6 0-1.1-.2-1.6-.4-1.2-.6-2-1.8-2-3.2V68.9c0-2 1.6-3.6 3.6-3.6h9.6c2 0 3.6 1.6 3.6 3.6V81.6c0 1.1-.5 2-1.2 2.6-.2.2-.5.4-.8.5-.5.2-1 .4-1.6.4h-1.4V103h3.5V88.3c.7-.2 1.3-.5 1.9-.9.7-.5 1.3-1.1 1.8-1.8.3-.4.5-.9.7-1.4h33.4c3.8 0 7-3.1 7-7V47.9h1.5c1 0 1.8-.8 1.8-1.8.1-.9-.7-1.7-1.7-1.7z"/><path class="st0" d="M55.4 58.9c4.4 0 8-3.6 8-8s-3.6-8-8-8-8 3.6-8 8 3.6 8 8 8zm0-12.5c2.5 0 4.5 2 4.5 4.5s-2 4.5-4.5 4.5-4.5-2-4.5-4.5 2-4.5 4.5-4.5z"/></svg>