<svg xmlns="http://www.w3.org/2000/svg" viewBox="0 0 31.143 31.143">
<path d="m 1.1476932,15.571 c 9.263e-4,1.702 1.2810462,3.081 2.857576,3.083 L 20.241118,18.652 15.8524,23.391 c -1.188418,1.284 -1.249553,3.301 -0.134311,4.507 1.116168,1.201 2.984477,1.138 4.174747,-0.146 l 9.166474,-9.898 c 1.192124,-1.283 1.252332,-3.301 0.135237,-4.506 -0.03057,-0.029 -0.06299,-0.051 -0.09263,-0.08 -0.03798,-0.043 -0.06484,-0.094 -0.104669,-0.139 L 19.953045,3.367 C 18.778521,2.101 16.924107,2.051 15.808865,3.256 14.692696,4.461 14.740863,6.464 15.911682,7.732 l 4.404465,4.754 H 4.0052692 c -1.5783823,-0.001 -2.857576,1.379 -2.857576,3.085 z"
     style="fill:none;stroke:#ffffff;stroke-width:2px" />
</svg>
