<svg xmlns="http://www.w3.org/2000/svg" viewBox="0 0 192.689 192.689" width="512" height="512"><g fill="#FFF"><path d="M188.527 87.755l-83.009-84.2a11.952 11.952 0 0 0-17.011 0c-4.704 4.74-4.704 12.439 0 17.179l74.54 75.61-74.54 75.61c-4.704 4.74-4.704 12.439 0 17.179 4.704 4.74 12.319 4.74 17.011 0l82.997-84.2c4.535-4.558 4.547-12.606.012-17.178z"/><path d="M104.315 87.755l-82.997-84.2c-4.704-4.74-12.319-4.74-17.011 0-4.704 4.74-4.704 12.439 0 17.179l74.528 75.61-74.54 75.61c-4.704 4.74-4.704 12.439 0 17.179s12.319 4.74 17.011 0l82.997-84.2c4.535-4.558 4.547-12.606.012-17.178z"/></g></svg>