<svg xmlns="http://www.w3.org/2000/svg" viewBox="0 0 154 146"><style>.st0{fill:#fff}</style><path class="st0" d="M108.1 67c-.4 0-.8-.1-1.1-.4l-28.8-25-28.6 25c-.7.6-1.8.6-2.5-.2-.6-.7-.6-1.8.2-2.5L77 38c.7-.6 1.6-.6 2.3 0l29.9 26c.7.6.8 1.7.2 2.5-.3.3-.8.5-1.3.5z"/><path class="st0" d="M100.7 65.9l-21.4-19c-.7-.6-1.7-.6-2.3 0l-21.2 19c-.4.3-.6.8-.6 1.3v24.3c0 1 .8 1.8 1.8 1.8h17.5V79.5h7.6v13.8h17.5c1 0 1.8-.8 1.8-1.8V67.2c-.1-.5-.3-1-.7-1.3zm-2.9 23.9H85.6V77.7c0-1-.8-1.8-1.8-1.8H72.7c-1 0-1.8.8-1.8 1.8v12.1H58.7V68l19.5-17.5L97.8 68v21.8z"/></svg>