<svg xmlns="http://www.w3.org/2000/svg" viewBox="0 0 154 146"><style>.st0{fill:#fff}</style><path class="st0" d="M57.2 71.1c-.9 0-1.6-.7-1.7-1.6-.1-.7-.1-1.4-.1-2 0-5.7 2.5-11 7-14.6.7-.6 1.9-.5 2.5.3.6.7.5 1.9-.3 2.5-3.6 2.9-5.7 7.3-5.7 11.9 0 .5 0 1.1.1 1.6.1 1-.6 1.8-1.6 1.9h-.2z"/><path class="st0" d="M57.2 71.1c-.9 0-1.6-.7-1.7-1.6-.1-.7-.1-1.4-.1-2 0-5.7 2.5-11 7-14.6.7-.6 1.9-.5 2.5.3.6.7.5 1.9-.3 2.5-3.6 2.9-5.7 7.3-5.7 11.9 0 .5 0 1.1.1 1.6.1 1-.6 1.8-1.6 1.9h-.2z"/><path class="st0" d="M103.9 92.6l-8.5-10.4C98.3 78 100 73 100 67.5c0-14.2-11.6-25.8-25.8-25.8-14.2 0-25.8 11.6-25.8 25.8 0 14.2 11.6 25.8 25.8 25.8 3.5 0 6.9-.7 9.9-2l8.5 10.4c1.5 1.8 3.7 2.7 6.1 2.5 1.4-.1 2.7-.7 3.8-1.5l.4-.3c1.4-1.2 2.3-2.8 2.5-4.7.3-1.9-.3-3.7-1.5-5.1zM52 67.5c0-12.3 10-22.3 22.3-22.3s22.3 10 22.3 22.3-10 22.3-22.3 22.3S52 79.8 52 67.5zm49.9 29.8c-.1.9-.5 1.7-1.2 2.3l-.4.3c-.5.4-1.1.7-1.8.7-1.1.1-2.2-.4-2.9-1.2l-8-9.8c2.1-1.3 4-2.8 5.6-4.6l8 9.8c.5.7.8 1.6.7 2.5z"/></svg>