<svg xmlns="http://www.w3.org/2000/svg" viewBox="0 0 56.68 56.32"><path fill="#333" d="M38.11 3.96l-.01-.01.01.01zM55.51 10.12l-9-8.95a4 4 0 0 0-5.65 0L38.11 4l2.47 2.47 2.79-2.79a.49.49 0 0 1 .36-.14.48.48 0 0 1 .35.14l9 9a.51.51 0 0 1 0 .7l-2.8 2.8-5.58 5.4-23.05 23.05-3.39-3.41-2.47-2.49L12.06 35l23.18-23.21-2.47-2.47-25.2 25.2a1.79 1.79 0 0 0-.4.62L.11 54a1.74 1.74 0 0 0 .38 1.83 1.72 1.72 0 0 0 1.26.53 1.76 1.76 0 0 0 .55-.09L21 50a1.89 1.89 0 0 0 .69-.42l25.48-25.52 5.55-5.49 2.79-2.79a4 4 0 0 0 0-5.66zM8.93 50.34l-2.72-2.68 3.71-9.88L19 47z"/></svg>