<svg id="Calque_1" xmlns="http://www.w3.org/2000/svg" viewBox="0 0 154 146"><style>.st0{fill:#fff}</style><path class="st0" d="M98.4 68.2h-5.7v3.5h5.7c2 0 3.6 1.6 3.6 3.6v9.9c0 2-1.6 3.6-3.6 3.6h-1.6V104h3.5V92c3-.8 5.2-3.6 5.2-6.8v-9.9c0-3.9-3.2-7.1-7.1-7.1zM55.6 71.7h5.6v-3.5h-5.6c-3.9 0-7.1 3.2-7.1 7.1v9.9c0 3.2 2.2 6 5.2 6.8v12h3.5V88.8h-1.6c-2 0-3.6-1.6-3.6-3.6v-9.9c0-2 1.6-3.6 3.6-3.6zM89.2 68.2c0-.8-.2-1.5-.5-2.2-.6-1.5-1.6-2.7-3-3.5-1.1-.6-2.3-1-3.6-1H71.8c-1.3 0-2.6.4-3.6 1-1.3.8-2.4 2-3 3.5-.3.7-.4 1.4-.5 2.2v13.9c0 .9.2 1.8.5 2.6.6 1.4 1.5 2.6 2.8 3.4.1 0 .1.1.2.1.5.3 1.1.6 1.7.7v15h3.5V85.7h-1.6c-.9 0-1.6-.3-2.3-.8-.8-.7-1.3-1.6-1.3-2.8V68.6c0-2 1.6-3.5 3.6-3.5h10.4c2 0 3.6 1.6 3.6 3.6v13.5c0 1.1-.5 2-1.2 2.7-.6.5-1.4.9-2.3.9h-1.8V104H84V89c.6-.2 1.2-.4 1.7-.7.1 0 .2-.1.2-.1 1.2-.8 2.2-2 2.7-3.3.3-.8.5-1.7.5-2.6V68.6c.1-.1.1-.3.1-.4zM77 58.5c4.6 0 8.2-3.7 8.2-8.2 0-4.5-3.7-8.2-8.2-8.2-4.5 0-8.2 3.7-8.2 8.2-.1 4.5 3.6 8.2 8.2 8.2zm0-13c2.6 0 4.7 2.1 4.7 4.7s-2.1 4.7-4.7 4.7-4.7-2.1-4.7-4.7c-.1-2.5 2-4.7 4.7-4.7zM96 65.2c4.6 0 8.2-3.7 8.2-8.2s-3.7-8.2-8.2-8.2c-4.5 0-8.2 3.7-8.2 8.2s3.6 8.2 8.2 8.2zm0-13c2.6 0 4.7 2.1 4.7 4.7s-2.1 4.7-4.7 4.7-4.7-2.1-4.7-4.7c-.1-2.6 2-4.7 4.7-4.7zM58 65.2c4.5 0 8.2-3.7 8.2-8.2s-3.7-8.2-8.2-8.2c-4.6 0-8.2 3.7-8.2 8.2s3.7 8.2 8.2 8.2zm0-13c2.6 0 4.7 2.1 4.7 4.7s-2.1 4.7-4.7 4.7-4.7-2.1-4.7-4.7 2.1-4.7 4.7-4.7z"/></svg>