<svg xmlns="http://www.w3.org/2000/svg" viewBox="0 0 154 146"><style>.st0{fill:#fff}</style><path class="st0" d="M93.4 68.4H60.6c-1 0-1.8-.8-1.8-1.8s.8-1.8 1.8-1.8h32.7c1 0 1.8.8 1.8 1.8s-.8 1.8-1.7 1.8zM89.8 61.5H64.2c-1 0-1.8-.8-1.8-1.8s.8-1.8 1.8-1.8h25.6c1 0 1.8.8 1.8 1.8-.1 1-.8 1.8-1.8 1.8zM87.2 54.5H66.8c-1 0-1.8-.8-1.8-1.8s.8-1.8 1.8-1.8h20.3c1 0 1.8.8 1.8 1.8s-.8 1.8-1.7 1.8z"/><path class="st0" d="M107.5 72.8c0-.1-.1-.3-.2-.4l-11-20.7c-.5-.9-1.5-1.2-2.4-.7-.9.5-1.2 1.5-.7 2.4l9.8 18.4H82.8c0 .3.1.5.1.8 0 3.2-2.6 5.8-5.8 5.8-3.2 0-5.8-2.6-5.8-5.8 0-.3 0-.5.1-.8H50.9l9.8-18.4c.5-.9.1-1.9-.7-2.4-.9-.5-1.9-.1-2.4.7l-11 20.7c-.1.1-.1.3-.2.4-.1.2-.2.5-.2.7v19.9c0 1 .8 1.8 1.8 1.8h58c1 0 1.8-.8 1.8-1.8V73.6c-.1-.3-.2-.5-.3-.8zm-3.3 18.9H49.8V75.3h18.3c1.2 3.8 4.7 6.6 8.9 6.6s7.7-2.8 8.9-6.6h18.3v16.4z"/></svg>