<svg xmlns="http://www.w3.org/2000/svg" viewBox="0 0 154 146"><path d="M112.3 52.9l-.2-.2c-1.5-1.5-3.7-2.3-6.2-2.3-3.4 0-6.6 1.3-6.7 1.4l-14.3 5.8h-.2c-3.1-.1-12.4-3.5-17.5-5.5-2.1-.9-4.4-1.3-6.7-1.3-3.5 0-5.9.9-6.1 1-.6.2-1 .8-1.1 1.4-.1.6.1 1.3.6 1.7L66 65l-4.1 1.8c-1.3.6-2.7.9-4 .9-.9 0-1.7-.1-2-.3l-5.5-1.7c-1.2-.3-2.4-.5-3.5-.5-3.3 0-5.3 1.4-5.4 1.4-.5.3-.8.8-.8 1.4 0 .6.2 1.1.6 1.5l10.5 9.3-1.2 12.6c-.1.6.2 1.1.6 1.5.4.4 1 .6 1.6.5.1 0 2.6-.4 4.9-2.7.9-.8 1.6-1.7 2.2-2.8l2.8-5c.2-.3.6-.9 1.3-1.6 1-.9 2.2-1.7 3.6-2.1l4.2-1.5-1.9 15.6c-.1.6.2 1.3.7 1.7.5.4 1.2.5 1.8.3.3-.1 2.7-1.1 5.2-3.4 1.7-1.6 3.1-3.5 4-5.5 2.3-5 6.9-13.8 9-16 0 0 .3-.3.6-.5.2-.1.4-.2.5-.3l17.6-7.1c2.9-1.4 3.9-3.2 4.3-4.5.4-2.7-1.2-4.9-1.3-5.1zM54 76.1l-9.3-8.2 9.8 3.2c.1 0 1.4.4 3.2.4 1.9 0 3.8-.4 5.5-1.2l6.8-3c.6-.3 1-.8 1.1-1.4.1-.6-.2-1.3-.6-1.7l-11.9-9.9 3.3.3c1.3.1 2.6.5 3.8.9 6.6 2.7 15.6 5.8 19.1 5.8h.7c.2 0 .3-.1.4-.1l14.6-5.9s2.6-1.1 5.3-1.1c1.4 0 2.6.3 3.4 1l.2.1.1.2c.3.6.4 1.1.3 1.6-.2.7-.9 1.4-2.1 2l-17.8 7.2c-.2.1-1.2.8-1.3.9-.2.1-.4.3-.6.5-2.5 2.4-6.9 10.8-10 17.3-.6 1.2-1.3 2.3-2.1 3.3l-2.1 2.5 1.9-15.4c.1-.6-.2-1.3-.7-1.7-.5-.4-1.2-.5-1.8-.3l-7 2.5c-1.8.6-3.5 1.6-4.9 2.9-1.3 1.3-2 2.4-2 2.5l-5 9 1-11s.2-1 0-1.7c-.4-.8-1.3-1.5-1.3-1.5z" fill="#fff"/></svg>